<svg id="fb" data-name="Layer 1" xmlns="http://www.w3.org/2000/svg" viewBox="0 0 146.63 28.63">
  <defs>
    <style>
      
    </style>
  </defs>
  <title>fb</title>
  <g>
    <path class="fb-cls-1" d="M82.08,10.64A6.14,6.14,0,0,0,76.36,13v-.6h0V1.13l-5.84.7V29.34h5.84V27.71a10.8,10.8,0,0,0,2.45,1.56c3.4,1.22,7.88.23,9.45-4.32a15.12,15.12,0,0,0,.22-8.86A6.81,6.81,0,0,0,82.08,10.64ZM83,22.56a3,3,0,0,1-3.41,2.63,4,4,0,0,1-1.16-.26A4,4,0,0,1,76.45,22h0c-.09-1.29-.19-4,.44-5.27a3.32,3.32,0,0,1,6,1.05A16.78,16.78,0,0,1,83,22.56Z" transform="translate(-1.47 -1.13)"/>
    <path class="fb-cls-1" d="M102.76,11a11.75,11.75,0,0,0-6.09,0A7.35,7.35,0,0,0,91,16.76a19.22,19.22,0,0,0-.33,5.14A7.84,7.84,0,0,0,97,29.44l.16,0h0l.43.08h.15a5.13,5.13,0,0,0,.63.08,11.75,11.75,0,0,0,2.45,0H101a8,8,0,0,0,7.66-6.38,13.82,13.82,0,0,0,0-6.17A7.65,7.65,0,0,0,102.76,11ZM103,22.26c0,.12,0,.24-.07.36a3.06,3.06,0,0,1-3.3,2.58,3.1,3.1,0,0,1-3.2-2.92,22.77,22.77,0,0,1,0-4,3.32,3.32,0,0,1,6.53-.69A17.51,17.51,0,0,1,103,22.26Z" transform="translate(-1.47 -1.13)"/>
    <path class="fb-cls-1" d="M15.16,10.88H11V8.11C11.3,5.5,15.62,6,15.62,6V1.49h0c-.15,0-8.6-2-10.28,4.4h0v0a33.67,33.67,0,0,0-.24,5H1.47v4.93H5.31v13.4h5.58V15.81h4.27l.48-4.93Z" transform="translate(-1.47 -1.13)"/>
    <path class="fb-cls-1" d="M28.47,13.24,28.28,13h0l0,0-.13-.14h0a5.84,5.84,0,0,0-2.84-2,7.13,7.13,0,0,0-9,4.89,15.8,15.8,0,0,0-.32,7.45c1,5.37,4.94,7.17,9.2,6.28a5.52,5.52,0,0,0,3.17-2.22,1.3,1.3,0,0,0,.18-.29v2.36h5.45V10.91H28.47v2.33ZM28,22.53A3,3,0,0,1,24.8,25.2a3.09,3.09,0,0,1-3.14-2.57,16.21,16.21,0,0,1,.11-5.21A3,3,0,0,1,25,15.16a2.9,2.9,0,0,1,3,2.65A21.91,21.91,0,0,1,28,22.53Z" transform="translate(-1.47 -1.13)"/>
    <path class="fb-cls-1" d="M50.55,28c-.25-.92-.54-1.84-.81-2.72l-.27-1s-6.82,3.28-7.89-2.95a12.87,12.87,0,0,1,.08-3.1A3.33,3.33,0,0,1,45,15.18a7.57,7.57,0,0,1,1.9.07c.85.15,1.67.4,2.6.63.32-1,.65-2,.95-2.94.05-.15.09-.29.12-.41h0l.16-.59a.76.76,0,0,0-.26-.23h0a3.12,3.12,0,0,0-.84-.4l-.5-.16-.25-.08h0a14.52,14.52,0,0,0-5.5-.36A7.82,7.82,0,0,0,36,17.3,15.06,15.06,0,0,0,36,23.39a7.4,7.4,0,0,0,5.5,5.87,13.55,13.55,0,0,0,5.94.29,18.36,18.36,0,0,0,2.9-.87l.33-.12L50.55,28Z" transform="translate(-1.47 -1.13)"/>
    <path class="fb-cls-1" d="M68.52,20.82A30.35,30.35,0,0,0,68.34,17a6.84,6.84,0,0,0-6-6.19,15.14,15.14,0,0,0-4-.06c-3.59.34-6.33,2.58-6.89,6a21.25,21.25,0,0,0-.1,6.27c.41,3.09,1.92,5.06,4.52,6h0c1.19.35,7,1.88,12.14-.7l-.21-.76h0c-.23-1-.52-2-.79-3l0-.09-.29.1h0a5.53,5.53,0,0,0-.66.2l-.12,0a23.52,23.52,0,0,1-3.06.63,15.61,15.61,0,0,1-3,0c-1.63-.27-2.87-1.14-2.81-3.2H67.82l.72,0a1.33,1.33,0,0,1,0-.2ZM63.28,18.3H57c0-1.25.19-2.42,1.3-3.13a3.48,3.48,0,0,1,3.71-.1C63.21,15.75,63.31,17,63.28,18.3Z" transform="translate(-1.47 -1.13)"/>
    <polygon class="fb-cls-1" points="146.63 9.97 140.44 9.97 135.06 18.38 135.06 0.84 135.06 0.72 135.06 0.02 129.23 0.72 129.23 28.24 135.06 28.24 135.06 19.82 140.44 28.25 146.63 28.25 140.8 19.1 146.63 9.97"/>
    <path class="fb-cls-1" d="M122.67,11a11.69,11.69,0,0,0-6.1,0,7.37,7.37,0,0,0-5.72,5.77,20.13,20.13,0,0,0-.33,5.14,7.85,7.85,0,0,0,6.37,7.55l.17,0h0l.44.08h.15l.62.08a11.76,11.76,0,0,0,2.45,0h.13a8,8,0,0,0,7.66-6.38,14,14,0,0,0,0-6.17A7.68,7.68,0,0,0,122.67,11Zm.24,11.28-.06.36a3.3,3.3,0,0,1-6.5-.35,21.71,21.71,0,0,1,0-3.95,3.33,3.33,0,0,1,6.54-.69A17.85,17.85,0,0,1,122.91,22.26Z" transform="translate(-1.47 -1.13)"/>
  </g>
</svg>
