<svg id="fixed_button_icon" data-name="Layer 1" xmlns="http://www.w3.org/2000/svg" viewBox="0 0 95 83.3">
  <title>fixed_button_icon</title>
  <g>
    <path d="M50,1C23.8,1,2.5,18.43,2.5,39.83a34.48,34.48,0,0,0,9.3,23.1,64.33,64.33,0,0,1-6.5,10.2A6.78,6.78,0,0,0,4.7,81a6.87,6.87,0,0,0,5.9,3.3,6.6,6.6,0,0,0,1.4-.1,95,95,0,0,0,22.2-7.8A55.84,55.84,0,0,0,50,78.63c26.2,0,47.5-17.4,47.5-38.8S76.2,1,50,1Zm0,70.9a50.68,50.68,0,0,1-15.1-2.3,3.13,3.13,0,0,0-2.5.2,90.83,90.83,0,0,1-21.8,7.8c-.1,0-.2,0-.2-.1a.14.14,0,0,1,0-.2,65.37,65.37,0,0,0,8.4-13.6,3.21,3.21,0,0,0-.7-3.8c-5.9-5.8-9-12.7-9-20.1C9.2,22.13,27.5,7.73,50,7.73s40.8,14.4,40.8,32.1S72.5,71.93,50,71.93Z" transform="translate(-2.5 -1.03)"/>
    <path d="M67.1,33.63,57,32.23a1.46,1.46,0,0,1-.9-.6l-4.6-9.3a1.72,1.72,0,0,0-3.1,0L44,31.43a1.15,1.15,0,0,1-.9.6l-10.3,1.5a1.71,1.71,0,0,0-1,2.9l7.3,7.1a1,1,0,0,1,.3,1l-1.8,10.2a1.71,1.71,0,0,0,2.5,1.8l9-4.7a1.08,1.08,0,0,1,1.1,0l9.2,4.8a1.71,1.71,0,0,0,2.5-1.8l-1.7-10a1.21,1.21,0,0,1,.3-1l7.4-7.3A1.63,1.63,0,0,0,67.1,33.63Z" transform="translate(-2.5 -1.03)"/>
  </g>
</svg>
