<svg id="google" data-name="Layer 1" xmlns="http://www.w3.org/2000/svg" viewBox="0 0 379.21 119.26">
  <defs>
    <style>
     
    </style>
  </defs>
  <title>google-logo</title>
  <path class="google-cls-1" d="M51.36,46.75V59.52H81.87c-.94,7.15-3.32,12.39-7,16.08-4.46,4.46-11.41,9.34-23.55,9.34C32.58,84.94,17.9,69.79,17.9,51S32.58,17.08,51.36,17.08a32.43,32.43,0,0,1,23,9.13l9-9a44.06,44.06,0,0,0-32-13C25.63,4.27,4,25.23,4,51S25.63,97.64,51.36,97.64c13.9,0,24.38-4.56,32.58-13.07,8.4-8.4,11-20.28,11-29.83a41.69,41.69,0,0,0-.67-8Z" transform="translate(-4 -4.27)"/>
  <path class="google-cls-2" d="M133.12,36.38c-16.65,0-30.25,12.66-30.25,30.14,0,17.33,13.6,30.14,30.25,30.14s30.24-12.76,30.24-30.14S149.77,36.38,133.12,36.38Zm0,48.4c-9.13,0-17-7.52-17-18.26s7.89-18.26,17-18.26,17,7.42,17,18.26S142.25,84.78,133.12,84.78Z" transform="translate(-4 -4.27)"/>
  <path class="google-cls-1" d="M281.38,43.12h-.47c-3-3.52-8.66-6.74-15.87-6.74-15.05,0-28.17,13.12-28.17,30.14S250,96.66,265,96.66c7.21,0,12.91-3.22,15.87-6.85h.47V94c0,11.52-6.17,17.69-16.08,17.69-8.1,0-13.13-5.81-15.2-10.74l-11.52,4.78a28.71,28.71,0,0,0,26.72,17.79c15.51,0,28.63-9.13,28.63-31.38V37.94H281.38Zm-15.2,41.66c-9.13,0-16.08-7.78-16.08-18.26,0-10.64,7-18.26,16.08-18.26S282.26,56,282.26,66.62,275.21,84.78,266.18,84.78Z" transform="translate(-4 -4.27)"/>
  <path class="google-cls-3" d="M200.56,36.38c-16.66,0-30.25,12.66-30.25,30.14,0,17.33,13.59,30.14,30.25,30.14S230.8,83.9,230.8,66.52,217.21,36.38,200.56,36.38Zm0,48.4c-9.13,0-17-7.52-17-18.26s7.89-18.26,17-18.26,17,7.42,17,18.26S209.69,84.78,200.56,84.78Z" transform="translate(-4 -4.27)"/>
  <path class="google-cls-4" d="M304.31,5.51h13V96.66h-13Z" transform="translate(-4 -4.27)"/>
  <path class="google-cls-2" d="M357.53,84.78c-6.74,0-11.51-3.06-14.63-9.13L383.21,59l-1.35-3.43c-2.49-6.74-10.17-19.19-25.78-19.19s-28.43,12.19-28.43,30.14c0,16.91,12.76,30.14,29.88,30.14a30.09,30.09,0,0,0,25.11-13.33l-10.27-6.85c-3.43,5-8.09,8.3-14.84,8.3Zm-.93-37.09c5.34,0,9.91,2.75,11.41,6.64L340.78,65.59C340.78,52.93,349.75,47.69,356.6,47.69Z" transform="translate(-4 -4.27)"/>
</svg>
